<?xml version="1.0" encoding="UTF-8"?>
<svg width="215px" height="44px" viewBox="0 0 215 44" version="1.1" xmlns="http://www.w3.org/2000/svg" xmlns:xlink="http://www.w3.org/1999/xlink">
    <title>Group</title>
    <desc>Created with Sketch.</desc>
    <defs></defs>
    <g id="logos" stroke="none" stroke-width="1" fill="none" fill-rule="evenodd">
        <g id="Artboard-Copy-6" transform="translate(-18.000000, -17.000000)">
            <g id="Group" transform="translate(18.000000, 17.000000)">
                <g id="logoText" transform="translate(0.000000, 13.000000)">
                    <path d="M12.408,17 L11.352,14.216 L5.04,14.216 L3.984,17 L0.24,17 C1.29600528,14.3439867 2.34799476,11.7040131 3.396,9.08 C4.44400524,6.45598688 5.49599472,3.81601328 6.552,1.16 L9.888,1.16 C10.9440053,3.81601328 11.9879948,6.45598688 13.02,9.08 C14.0520052,11.7040131 15.0959947,14.3439867 16.152,17 L12.408,17 Z M10.248,11.096 C10.1199994,10.7279982 9.98400072,10.3640018 9.84,10.004 C9.69599928,9.6439982 9.56000064,9.28000184 9.432,8.912 C9.20799888,8.3519972 9.02000076,7.81600256 8.868,7.304 C8.71599924,6.79199744 8.6000004,6.35200184 8.52,5.984 C8.40799944,5.55199784 8.32800024,5.15200184 8.28,4.784 L8.184,4.784 C8.1039996,5.15200184 8.01600048,5.55199784 7.92,5.984 C7.82399952,6.35200184 7.70800068,6.79199744 7.572,7.304 C7.43599932,7.81600256 7.25600112,8.3519972 7.032,8.912 C6.90399936,9.28000184 6.76800072,9.6439982 6.624,10.004 C6.47999928,10.3640018 6.34400064,10.7279982 6.216,11.096 L10.248,11.096 Z M27.148,1.16 L30.82,1.16 L30.82,9.08 C30.82,10.6160077 30.6880013,11.9079948 30.424,12.956 C30.1599987,14.0040052 29.7520028,14.8439968 29.2,15.476 C28.6479972,16.1080032 27.9480042,16.5599986 27.1,16.832 C26.2519958,17.1040014 25.2440058,17.24 24.076,17.24 C22.8919941,17.24 21.8760042,17.1040014 21.028,16.832 C20.1799958,16.5599986 19.4840027,16.1080032 18.94,15.476 C18.3959973,14.8439968 17.9920013,14.0040052 17.728,12.956 C17.4639987,11.9079948 17.332,10.6160077 17.332,9.08 L17.332,1.16 L21.004,1.16 L21.004,9.08 C21.004,10.0240047 21.0639994,10.8159968 21.184,11.456 C21.3040006,12.0960032 21.4879988,12.615998 21.736,13.016 C21.9840012,13.416002 22.303998,13.6999992 22.696,13.868 C23.088002,14.0360008 23.5479974,14.12 24.076,14.12 C24.6040026,14.12 25.0599981,14.0360008 25.444,13.868 C25.8280019,13.6999992 26.1479987,13.416002 26.404,13.016 C26.6600013,12.615998 26.8479994,12.0960032 26.968,11.456 C27.0880006,10.8159968 27.148,10.0240047 27.148,9.08 L27.148,1.16 Z M36.56,17 L36.56,4.28 L32.072,4.28 L32.072,1.16 L44.72,1.16 L44.72,4.28 L40.232,4.28 L40.232,17 L36.56,17 Z M52.908,17.24 C51.6119935,17.24 50.4920047,17.1040014 49.548,16.832 C48.6039953,16.5599986 47.828003,16.1080032 47.22,15.476 C46.611997,14.8439968 46.1640014,14.0040052 45.876,12.956 C45.5879986,11.9079948 45.444,10.6160077 45.444,9.08 C45.444,7.54399232 45.5879986,6.25200524 45.876,5.204 C46.1640014,4.15599476 46.611997,3.31600316 47.22,2.684 C47.828003,2.05199684 48.6039953,1.60000136 49.548,1.328 C50.4920047,1.05599864 51.6119935,0.92 52.908,0.92 C54.2040065,0.92 55.3199953,1.05599864 56.256,1.328 C57.1920047,1.60000136 57.9679969,2.05199684 58.584,2.684 C59.2000031,3.31600316 59.6519986,4.15599476 59.94,5.204 C60.2280014,6.25200524 60.372,7.54399232 60.372,9.08 C60.372,10.6160077 60.2280014,11.9079948 59.94,12.956 C59.6519986,14.0040052 59.2000031,14.8439968 58.584,15.476 C57.9679969,16.1080032 57.1920047,16.5599986 56.256,16.832 C55.3199953,17.1040014 54.2040065,17.24 52.908,17.24 Z M52.908,14.12 C53.5640033,14.12 54.1279976,14.0360008 54.6,13.868 C55.0720024,13.6999992 55.4639984,13.416002 55.776,13.016 C56.0880016,12.615998 56.3199992,12.0960032 56.472,11.456 C56.6240008,10.8159968 56.7,10.0240047 56.7,9.08 C56.7,8.15199536 56.6240008,7.36400324 56.472,6.716 C56.3199992,6.06799676 56.0880016,5.54800196 55.776,5.156 C55.4639984,4.76399804 55.0720024,4.48000088 54.6,4.304 C54.1279976,4.12799912 53.5640033,4.04 52.908,4.04 C52.2519967,4.04 51.6840024,4.12799912 51.204,4.304 C50.7239976,4.48000088 50.3280016,4.76399804 50.016,5.156 C49.7039984,5.54800196 49.4760007,6.06799676 49.332,6.716 C49.1879993,7.36400324 49.116,8.15199536 49.116,9.08 C49.116,10.0240047 49.1879993,10.8159968 49.332,11.456 C49.4760007,12.0960032 49.7039984,12.615998 50.016,13.016 C50.3280016,13.416002 50.7239976,13.6999992 51.204,13.868 C51.6840024,14.0360008 52.2519967,14.12 52.908,14.12 Z M102.46,12.248 C102.46,13.2720051 102.280002,14.1079968 101.92,14.756 C101.559998,15.4040032 101.080003,15.9119982 100.48,16.28 C99.879997,16.6480018 99.180004,16.8999993 98.38,17.036 C97.579996,17.1720007 96.7400044,17.24 95.86,17.24 C94.659994,17.24 93.6200044,17.1240012 92.74,16.892 C91.8599956,16.6599988 91.1320029,16.240003 90.556,15.632 C89.9799971,15.023997 89.5520014,14.1920053 89.272,13.136 C88.9919986,12.0799947 88.852,10.7200083 88.852,9.056 C88.852,7.39199168 88.9919986,6.03200528 89.272,4.976 C89.5520014,3.91999472 89.9839971,3.092003 90.568,2.492 C91.1520029,1.891997 91.8919955,1.48000112 92.788,1.256 C93.6840045,1.03199888 94.7479938,0.92 95.98,0.92 C96.9080046,0.92 97.767996,0.98799932 98.56,1.124 C99.352004,1.26000068 100.035997,1.51199816 100.612,1.88 C101.188003,2.24800184 101.639998,2.75599676 101.968,3.404 C102.296002,4.05200324 102.46,4.88799488 102.46,5.912 L98.788,5.912 C98.788,5.46399776 98.7080008,5.11600124 98.548,4.868 C98.3879992,4.61999876 98.1800013,4.4360006 97.924,4.316 C97.6679987,4.1959994 97.3720017,4.12000016 97.036,4.088 C96.6999983,4.05599984 96.3640017,4.04 96.028,4.04 C95.3719967,4.04 94.8200022,4.0799996 94.372,4.16 C93.9239978,4.2400004 93.5640014,4.44399836 93.292,4.772 C93.0199986,5.10000164 92.8240006,5.59999664 92.704,6.272 C92.5839994,6.94400336 92.524,7.87199408 92.524,9.056 C92.524,10.2240058 92.5839994,11.1439966 92.704,11.816 C92.8240006,12.4880034 93.0199986,12.9959983 93.292,13.34 C93.5640014,13.6840017 93.9159978,13.8999996 94.348,13.988 C94.7800022,14.0760004 95.3159968,14.12 95.956,14.12 C96.2280014,14.12 96.5279984,14.1080001 96.856,14.084 C97.1840016,14.0599999 97.4919986,13.9880006 97.78,13.868 C98.0680014,13.7479994 98.307999,13.5600013 98.5,13.304 C98.692001,13.0479987 98.788,12.6960022 98.788,12.248 L102.46,12.248 Z M104.096,17 L104.096,1.16 L115.136,1.16 L115.136,4.28 L107.768,4.28 L107.768,7.496 L114.176,7.496 L114.176,10.568 L107.768,10.568 L107.768,13.88 L115.136,13.88 L115.136,17 L104.096,17 Z M117.636,17 L117.636,1.16 L121.308,1.16 L121.308,13.88 L128.1,13.88 L128.1,17 L117.636,17 Z M130.096,17 L130.096,1.16 L133.768,1.16 L133.768,13.88 L140.56,13.88 L140.56,17 L130.096,17 Z" id="AUTO-&amp;-CELL" fill="#BE1E2E"></path>
                    <path d="M73.0939419,4.04119376 C72.5965594,4.05080145 72.2185821,4.118403 71.96,4.244 C71.6799986,4.38000068 71.54,4.67999768 71.54,5.144 C71.54,5.36800112 71.5999994,5.579999 71.72,5.78 C71.8400006,5.980001 71.9879991,6.179999 72.164,6.38 C72.3400009,6.580001 72.527999,6.77599904 72.728,6.968 C72.928001,7.16000096 73.1159991,7.35199904 73.292,7.544 L76.148,10.664 C76.1800002,10.4399989 76.196,10.2120012 76.196,9.98 L76.196,9.224 L79.844,9.224 C79.844,11.1120094 79.5880026,12.6399942 79.076,13.808 C79.5880026,14.3520027 80.0879976,14.8839974 80.576,15.404 C81.0640024,15.9240026 81.5559975,16.4559973 82.052,17 L77.78,17 C77.6679994,16.8719994 77.5520006,16.7480006 77.432,16.628 C77.3119994,16.5079994 77.1960006,16.3840006 77.084,16.256 C76.5239972,16.6080018 75.8800036,16.8599992 75.152,17.012 C74.4239964,17.1640008 73.6200044,17.24 72.74,17.24 C70.8679906,17.24 69.4840045,16.844004 68.588,16.052 C67.6919955,15.259996 67.244,14.1360073 67.244,12.68 C67.244,12.1199972 67.2999994,11.6240022 67.412,11.192 C67.5240006,10.7599978 67.6879989,10.3760017 67.904,10.04 C68.1200011,9.70399832 68.3799985,9.3960014 68.684,9.116 C68.9880015,8.8359986 69.3239982,8.56000136 69.692,8.288 L68.924,7.376 C68.6359986,7.03999832 68.4080008,6.64800224 68.24,6.2 C68.0719992,5.75199776 67.9800001,5.22400304 67.964,4.616 C67.964,3.46399424 68.363996,2.56000328 69.164,1.904 C69.964004,1.24799672 71.2519911,0.92 73.028,0.92 C73.8760042,0.92 74.6159968,1.00799912 75.248,1.184 C75.8800032,1.36000088 76.4039979,1.64399804 76.82,2.036 C77.2360021,2.42800196 77.547999,2.93999684 77.756,3.572 C77.964001,4.20400316 78.068,4.98399536 78.068,5.912 L74.42,5.912 C74.42,5.47999784 74.3840004,5.13600128 74.312,4.88 C74.2399996,4.62399872 74.1360007,4.4360006 74,4.316 C73.8639993,4.1959994 73.7120008,4.12000016 73.544,4.088 C73.4024934,4.06104636 73.2524751,4.04544438 73.0939419,4.04119376 L73.0939419,4.04119376 Z M72.74,14.12 C73.140002,14.12 73.5079983,14.0960002 73.844,14.048 C74.1800017,13.9999998 74.4839986,13.8960008 74.756,13.736 C74.2599975,13.1919973 73.7600025,12.6600026 73.256,12.14 C72.7519975,11.6199974 72.2520025,11.0880027 71.756,10.544 C71.547999,10.7200009 71.3880006,10.8879992 71.276,11.048 C71.1639994,11.2080008 71.0800003,11.3679992 71.024,11.528 C70.9679997,11.6880008 70.936,11.8439992 70.928,11.996 C70.92,12.1480008 70.916,12.3039992 70.916,12.464 C70.916,13.1200033 71.0759984,13.5599989 71.396,13.784 C71.7160016,14.0080011 72.1639971,14.12 72.74,14.12 Z" id="Combined-Shape" fill="#000000"></path>
                </g>
                <g id="logoIcon" transform="translate(151.000000, 0.000000)">
                    <path d="M63.0909091,21 L44,0 L0,0 L19.0909091,21 L25.8482131,21 L11.3027585,5 L41.7881506,5 L56.3332508,20.9996103 L56.3332494,21 L63.0909091,21 Z M63.0909091,23 L44,44 L0,44 L19.0909091,23 L25.8376729,23 L25.8374704,23.0118169 L11.3027585,39 L41.7881506,39 L56.325864,23.0085153 L56.3258953,23 L63.0909091,23 Z" id="Combined-Shape" fill="#BE1E2E" fill-rule="nonzero"></path>
                    <polygon id="Path" fill="#000000" points="25 23 25 21 57 21 57 23"></polygon>
                </g>
            </g>
        </g>
    </g>
</svg>