<svg aria-hidden="true" style="position: absolute; width: 0; height: 0; overflow: hidden;" version="1.1" xmlns="http://www.w3.org/2000/svg" xmlns:xlink="http://www.w3.org/1999/xlink">
<defs>
<symbol id="icon-mainlogo" viewBox="0 0 20 20">
	<path d="M16.9,12.884v-0.778h0.15v-1.06h0.268c-0.166-0.239-0.469-0.691-0.623-1.041
		c-0.22-0.498-0.458-1.15-0.458-1.15V8.193c0.131,0.009,0.324,0.027,0.546,0.065c0.384,0.067,0.676-0.299,0.676-0.299
		s-0.477,0.15-0.741-0.1c-0.157-0.146-0.346-0.177-0.479-0.181V7.655h-0.146v0.027c-0.006,0-0.021,0.003-0.021,0.003l0.009,0.499
		l0.013,0.001v0.687h-0.006c0,0-0.227,0.637-0.451,1.134c-0.15,0.349-0.453,0.801-0.621,1.041h0.267v1.06h0.15v0.778l-1.65,0.023
		V9.38h0.188l0.199-0.359V8.048h-0.63V6.241h0.088l0.153-0.268V5.242h-0.363V3.82h0.574c-0.137-0.199-1.213-2.026-1.271-2.299
		c0.071-0.035,0.12-0.099,0.12-0.175c0-0.095-0.07-0.172-0.17-0.195v-0.42c0.142,0.007,0.477,0.029,0.857,0.094
		c0.5,0.088,0.882-0.392,0.882-0.392s-0.621,0.196-0.97-0.131c-0.265-0.247-0.614-0.251-0.771-0.239V0h-0.157v1.151
		c-0.1,0.023-0.17,0.1-0.17,0.195c0,0.076,0.048,0.14,0.115,0.175c-0.053,0.273-1.125,2.1-1.264,2.299h0.57v1.421h-0.352v0.731
		l0.147,0.269h0.09v1.807h-0.631v0.973l0.2,0.359h0.194v1.002l-0.943-1.395v-1.07h-0.53V8.31C9.834,8.094,9.72,7.842,9.649,7.624
		C9.492,7.148,9.353,6.536,9.353,6.536H9.317V6.298c0.12,0.007,0.332,0.025,0.581,0.068c0.368,0.065,0.65-0.29,0.65-0.29
		s-0.459,0.145-0.717-0.097C9.575,5.738,9.204,5.81,9.204,5.81l0.002,0.117v0.609H9.185c0,0-0.135,0.612-0.292,1.088
		C8.784,7.959,8.564,8.396,8.447,8.628h0.222v3.135H8.031c-0.124-0.252-0.285-0.6-0.378-0.881c-0.167-0.51-0.312-1.166-0.312-1.166
		H7.326V8.681H7.173v1.036H7.158c0,0-0.146,0.654-0.314,1.166c-0.117,0.357-0.347,0.828-0.477,1.072h0.239v2.555h-1.01v-1.234h0.23
		v-1.852h0.401c-0.253-0.252-0.709-0.735-0.942-1.104c-0.331-0.528-0.68-1.203-0.68-1.203H4.596v-0.9
		c0.119,0.01,0.271,0.027,0.438,0.056c0.369,0.065,0.651-0.289,0.651-0.289s-0.46,0.144-0.716-0.097
		c-0.255-0.242-0.625-0.17-0.625-0.17l0.007,0.482L4.371,8.2v0.916H4.365c0,0-0.347,0.674-0.683,1.203
		c-0.229,0.369-0.688,0.853-0.941,1.104h0.398v1.852h0.232v1.362H1.698v4.854h6.755v-2.019c0,0,0.069-1.585,1.628-1.585
		c1.556,0,1.614,1.585,1.614,1.585v2.019h3.17v0.01h2.938v-6.617H16.9L16.9,12.884z M12.912,7.524H12.24V6.548
		c0,0,0.046-0.271,0.33-0.271c0.282,0,0.342,0.271,0.342,0.271V7.524z"/>
</symbol>
<symbol id="icon-bookmark" viewBox="0 0 20 20">
<path d="M14 2v17l-4-4-4 4v-17c0-0.553 0.585-1.020 1-1h6c0.689-0.020 1 0.447 1 1z"></path>
</symbol>
<symbol id="icon-chevron-thin-right" viewBox="0 0 20 20">
<path d="M13.25 10l-7.141-7.42c-0.268-0.27-0.268-0.707 0-0.979 0.268-0.27 0.701-0.27 0.969 0l7.83 7.908c0.268 0.271 0.268 0.709 0 0.979l-7.83 7.908c-0.268 0.271-0.701 0.27-0.969 0s-0.268-0.707 0-0.979l7.141-7.417z"></path>
</symbol>
<symbol id="icon-aircraft-take-off" viewBox="0 0 20 20">
<path d="M19.87 6.453c0.119 0.257 0.127 1.29-4.884 3.642l-4.913 2.306c-1.71 0.803-4.191 1.859-5.285 2.151-0.766 0.204-1.497-0.316-1.497-0.316s-2.206-1.975-2.792-2.419c-0.585-0.444-0.535-0.67 0.215-0.91 0.467-0.149 3.13 0.493 4.265 0.78 1.339-0.8 2.562-1.486 3.141-1.798-1.396-1.033-4.008-2.962-4.841-3.55-0.799-0.565 0.010-0.768 0.010-0.768 0.368-0.099 1.162-0.228 1.562-0.144 2.721 0.569 7.263 2.071 7.611 2.186 0.832-0.436 2.128-1.092 2.922-1.465 2.075-0.974 4.327-0.037 4.486 0.305z"></path>
</symbol>
<symbol id="icon-chat" viewBox="0 0 20 20">
<path d="M5.8 12.2v-6.2h-3.8c-1.1 0-2 0.9-2 2v6c0 1.1 0.9 2 2 2h1v3l3-3h5c1.1 0 2-0.9 2-2v-1.82c-0.064 0.014-0.132 0.021-0.2 0.021l-7-0.001zM18 1h-9c-1.1 0-2 0.9-2 2v8h7l3 3v-3h1c1.1 0 2-0.899 2-2v-6c0-1.1-0.9-2-2-2z"></path>
</symbol>
<symbol id="icon-home" viewBox="0 0 20 20">
<path d="M18.672 11h-1.672v6c0 0.445-0.194 1-1 1h-4v-6h-4v6h-4c-0.806 0-1-0.555-1-1v-6h-1.672c-0.598 0-0.47-0.324-0.060-0.748l8.024-8.032c0.195-0.202 0.451-0.302 0.708-0.312 0.257 0.010 0.513 0.109 0.708 0.312l8.023 8.031c0.411 0.425 0.539 0.749-0.059 0.749z"></path>
</symbol>
<symbol id="icon-key" viewBox="0 0 20 20">
<path d="M17.691 4.725c-0.503-2.977-3.22-4.967-6.069-4.441s-5.256 2.816-4.753 5.795c0.107 0.641 0.408 1.644 0.763 2.365l-5.175 7.723c-0.191 0.285-0.299 0.799-0.242 1.141l0.333 1.971c0.058 0.342 0.372 0.572 0.7 0.514l1.516-0.281c0.328-0.059 0.744-0.348 0.924-0.639l2.047-3.311 0.018-0.022 1.386-0.256 2.39-3.879c0.785 0.139 1.912 0.092 2.578-0.031 2.848-0.526 4.087-3.67 3.584-6.649zM15.166 6.252c-0.784 1.17-1.584 0.346-2.703-0.475-1.119-0.818-2.135-1.322-1.352-2.492s2.326-1.455 3.447-0.635c1.12 0.819 1.391 2.432 0.608 3.602z"></path>
</symbol>
<symbol id="icon-location-pin" viewBox="0 0 20 20">
<path d="M10 2.009c-2.762 0-5 2.229-5 4.99 0 4.774 5 11 5 11s5-6.227 5-11c0-2.76-2.238-4.99-5-4.99zM10 9.76c-1.492 0-2.7-1.209-2.7-2.7s1.208-2.7 2.7-2.7c1.49 0 2.699 1.209 2.699 2.7s-1.209 2.7-2.699 2.7z"></path>
</symbol>
<symbol id="icon-magnifying-glass" viewBox="0 0 20 20">
<path d="M17.545 15.467l-3.779-3.779c0.57-0.935 0.898-2.035 0.898-3.21 0-3.417-2.961-6.377-6.378-6.377s-6.186 2.769-6.186 6.186c0 3.416 2.961 6.377 6.377 6.377 1.137 0 2.2-0.309 3.115-0.844l3.799 3.801c0.372 0.371 0.975 0.371 1.346 0l0.943-0.943c0.371-0.371 0.236-0.84-0.135-1.211zM4.004 8.287c0-2.366 1.917-4.283 4.282-4.283s4.474 2.107 4.474 4.474c0 2.365-1.918 4.283-4.283 4.283s-4.473-2.109-4.473-4.474z"></path>
</symbol>
<symbol id="icon-map" viewBox="0 0 20 20">
<path d="M19.447 3.718l-6-3c-0.281-0.141-0.613-0.141-0.895 0l-5.63 2.815-5.606-1.869c-0.306-0.102-0.64-0.051-0.901 0.138s-0.415 0.49-0.415 0.811v13.001c0 0.379 0.214 0.725 0.553 0.894l6 3c0.141 0.070 0.294 0.106 0.447 0.106s0.307-0.035 0.447-0.106l5.63-2.814 5.606 1.869c0.305 0.1 0.64 0.049 0.901-0.139s0.415-0.49 0.415-0.81v-13.002c0.001-0.379-0.213-0.725-0.552-0.894zM8 5.231l4-2v11.763l-4 2v-11.763zM2 4l4 1.333v11.661l-4-2v-10.994zM18 16.227l-4-1.334v-11.662l4 2v10.996z"></path>
</symbol>
<symbol id="icon-star" viewBox="0 0 20 20">
<path d="M10 1.3l2.388 6.722h6.412l-5.232 3.948 1.871 6.928-5.439-4.154-5.438 4.154 1.87-6.928-5.233-3.948h6.412l2.389-6.722z"></path>
</symbol>
</defs>
</svg>
