<svg xmlns="http://www.w3.org/2000/svg" width="1507.7" height="316.712" viewBox="0 0 1507.7 316.712">
  <g id="logo" transform="translate(-13.3 -4165)">
    <g id="Group_66" data-name="Group 66" transform="translate(82 4115)">
      <g id="Group_67" data-name="Group 67" transform="translate(-73 13)">
        <path id="Path_246" data-name="Path 246" d="M-1035.164,238.3h-1.459c-86.232.438-155.977,70.474-155.977,156.706a156.735,156.735,0,0,0,156.706,156.706A156.735,156.735,0,0,0-879.188,395.006c0-86.378-69.745-156.414-155.976-156.706Z" transform="translate(1196.9 -198)"/>
        <path id="Path_247" data-name="Path 247" d="M-973.958,292.3l-54.716,54.716-2.627,2.626,5.253,5.253,2.626-2.626,53.111-53.111c-1.021-2.335-2.334-4.523-3.648-6.858Z" transform="translate(1270.951 -173.209)" fill="#dea027"/>
        <path id="Path_248" data-name="Path 248" d="M-977.618,284.5l-58.655,58.655-2.626,2.626,5.253,5.253,2.626-2.626,57.634-57.634c-1.459-2.043-2.772-4.231-4.232-6.274Z" transform="translate(1267.462 -176.79)" fill="#dea027"/>
        <path id="Path_249" data-name="Path 249" d="M-1120.441,419.9H-1162.9c1.167,1.313,2.48,2.48,3.647,3.794h63.033V419.9h-24.221Z" transform="translate(1210.534 -114.63)" fill="#c2872b"/>
        <path id="Path_250" data-name="Path 250" d="M-1098.664,338.167s14.883-14.883,22.324-11.235a28.535,28.535,0,0,1,7.442-18.676l26.7-26.7a29.766,29.766,0,0,1,42.168,0l22.762,22.762a29.942,29.942,0,0,1,0,42.314l-94.4,94.4a29.942,29.942,0,0,1-42.314,0l-22.762-22.762a29.941,29.941,0,0,1,0-42.314l38.082-37.79Z" transform="translate(1218.523 -182.161)" fill="#c2872b"/>
        <path id="Path_251" data-name="Path 251" d="M-1035.742,287.954a29.942,29.942,0,0,1,42.313,0l24.659,24.659a29.942,29.942,0,0,1,0,42.313l-94.4,94.4a29.942,29.942,0,0,1-42.314,0l-24.659-24.659a29.942,29.942,0,0,1,0-42.314l94.4-94.4Z" transform="translate(1221.553 -179.223)" fill="#dea027"/>
        <path id="Path_252" data-name="Path 252" d="M-1074.854,412.273a20.549,20.549,0,0,0-20.573-20.573A20.549,20.549,0,0,0-1116,412.273a20.549,20.549,0,0,0,20.573,20.573,20.549,20.549,0,0,0,20.573-20.573Z" transform="translate(1232.066 -127.576)"/>
        <path id="Path_253" data-name="Path 253" d="M-1110.8,409.932a13.17,13.17,0,0,1,13.132-13.132,13.17,13.17,0,0,1,13.132,13.132,13.17,13.17,0,0,1-13.132,13.132,13.077,13.077,0,0,1-13.132-13.132Z" transform="translate(1234.453 -125.235)" fill="#c2872b"/>
        <path id="Path_254" data-name="Path 254" d="M-1110.9,418.639h22.616V414.7H-1110.9Z" transform="translate(1234.407 -117.017)" fill="#c2872b"/>
        <path id="Path_255" data-name="Path 255" d="M-1145.4,418.639h41.292V414.7H-1145.4Z" transform="translate(1218.568 -117.017)" fill="#c2872b"/>
        <path id="Path_256" data-name="Path 256" d="M-1045.056,320.779l2.626-2.626-5.253-5.253-2.626,2.626-52.965,52.819-2.626,2.772,5.253,5.253,2.626-2.626Z" transform="translate(1236.703 -163.752)"/>
        <path id="Path_257" data-name="Path 257" d="M-1032.456,333.425l2.626-2.626-5.253-5.4-2.626,2.772-52.965,52.819-2.627,2.626,5.253,5.4,2.626-2.626Z" transform="translate(1242.487 -158.013)"/>
      </g>
      <path id="Path_263" data-name="Path 263" d="M18.141,19.876a9.057,9.057,0,0,1-6.622-2.806,9.057,9.057,0,0,1-2.806-6.622,10.187,10.187,0,0,1,2.02-6.286L62.589-59.593,11.181-122.9a10.187,10.187,0,0,1-2.02-6.286,9.587,9.587,0,0,1,2.806-7.071,9.587,9.587,0,0,1,7.071-2.806,10.408,10.408,0,0,1,4.714,1.122,9.963,9.963,0,0,1,3.592,2.918L74.712-74.858l47.367-60.612a8.392,8.392,0,0,1,7.408-3.592,9.693,9.693,0,0,1,6.959,2.806,9.137,9.137,0,0,1,2.918,6.847,9.3,9.3,0,0,1-1.8,5.612L85.712-59.817,137.568,3.937a8.393,8.393,0,0,1,2.02,5.837,9.967,9.967,0,0,1-2.806,7.184,10.131,10.131,0,0,1-15.377-1.347L73.365-44.777,26,15.835A10,10,0,0,1,18.141,19.876ZM234.1,21q-22.449,0-40.3-9.765a70.321,70.321,0,0,1-28.061-28.061q-10.214-18.3-10.214-42.765t10.214-42.765A70.321,70.321,0,0,1,193.8-130.419q17.847-9.765,40.3-9.765a95.2,95.2,0,0,1,27.275,3.592,116.057,116.057,0,0,1,23.908,10.326,9.036,9.036,0,0,1,4.939,8.531,8.355,8.355,0,0,1-2.469,5.949,8.594,8.594,0,0,1-6.51,2.582,8.911,8.911,0,0,1-4.041-.9,102.726,102.726,0,0,0-19.306-7.857,79.508,79.508,0,0,0-21.775-2.694q-19.306,0-32.888,7.969A51.167,51.167,0,0,0,182.8-90.909q-6.847,13.806-6.847,31.316T182.8-28.277A51.167,51.167,0,0,0,203.231-6.5q13.582,7.969,32.888,7.969a79.507,79.507,0,0,0,21.775-2.694A102.724,102.724,0,0,0,277.2-9.083a8.91,8.91,0,0,1,4.041-.9,8.8,8.8,0,0,1,6.51,2.469A8.241,8.241,0,0,1,290.22-1.45a9.036,9.036,0,0,1-4.939,8.531,116.059,116.059,0,0,1-23.908,10.326A95.2,95.2,0,0,1,234.1,21Zm96.979-2.245a9.763,9.763,0,0,1-7.184-2.918,9.763,9.763,0,0,1-2.918-7.184V-127.613a10.141,10.141,0,0,1,2.918-7.3,9.581,9.581,0,0,1,7.184-3.031H421.1a9.316,9.316,0,0,1,6.847,2.806,9.316,9.316,0,0,1,2.806,6.847,8.95,8.95,0,0,1-2.806,6.735,9.517,9.517,0,0,1-6.847,2.694H341.4v49.612h71.612a9.316,9.316,0,0,1,6.847,2.806,9.316,9.316,0,0,1,2.806,6.847,8.95,8.95,0,0,1-2.806,6.735,9.517,9.517,0,0,1-6.847,2.694H341.4V-.328H421.1a9.316,9.316,0,0,1,6.847,2.806,9.316,9.316,0,0,1,2.806,6.847,8.95,8.95,0,0,1-2.806,6.735,9.517,9.517,0,0,1-6.847,2.694Zm147.264,0a13.619,13.619,0,0,1-9.99-4.153,13.62,13.62,0,0,1-4.153-9.99V-128.735a10.141,10.141,0,0,1,2.918-7.3,9.581,9.581,0,0,1,7.184-3.031,9.946,9.946,0,0,1,7.3,3.031,9.946,9.946,0,0,1,3.031,7.3V-1.675h73.408a9.946,9.946,0,0,1,7.3,3.031,9.945,9.945,0,0,1,3.031,7.3,9.581,9.581,0,0,1-3.031,7.184,10.141,10.141,0,0,1-7.3,2.918Z" transform="translate(279 213.001)" fill="#dea027"/>
      <path id="Path_262" data-name="Path 262" d="M67.9,19.744a9.763,9.763,0,0,1-7.184-2.918A9.763,9.763,0,0,1,57.8,9.642V-118.99H12a9.137,9.137,0,0,1-6.735-2.694,9.137,9.137,0,0,1-2.694-6.735,9.517,9.517,0,0,1,2.694-6.847A8.95,8.95,0,0,1,12-138.072H123.8a9.316,9.316,0,0,1,6.847,2.806,9.316,9.316,0,0,1,2.806,6.847,8.95,8.95,0,0,1-2.806,6.735,9.517,9.517,0,0,1-6.847,2.694H78.227V9.642A9.581,9.581,0,0,1,75.2,16.825,10.141,10.141,0,0,1,67.9,19.744Zm100.346,0a9.763,9.763,0,0,1-7.184-2.918,9.763,9.763,0,0,1-2.918-7.184V-127.745a10.141,10.141,0,0,1,2.918-7.3,9.581,9.581,0,0,1,7.184-3.031h52.306q30.53,0,45.8,12.571t15.265,33a42.91,42.91,0,0,1-7.52,24.581q-7.52,11.112-21.888,16.051,16.163,4.265,22.112,20.092A87.985,87.985,0,0,1,280.266-.685V9.642a9.763,9.763,0,0,1-2.918,7.184,9.763,9.763,0,0,1-7.184,2.918,10.163,10.163,0,0,1-7.52-2.806,9.87,9.87,0,0,1-2.806-7.3V2.907a100.256,100.256,0,0,0-2.02-20.765,33.393,33.393,0,0,0-9.653-17.061q-7.633-7.52-23.122-7.52H178.573V9.642a9.581,9.581,0,0,1-3.031,7.184A10.141,10.141,0,0,1,168.246,19.744Zm50.959-81.489q19.306,0,30.643-7.633t11.337-21.551q0-13.469-9.765-20.653t-33.337-7.184h-39.51v57.02ZM328.082,19.744a9.763,9.763,0,0,1-7.184-2.918,9.763,9.763,0,0,1-2.918-7.184V-128.868a10.141,10.141,0,0,1,2.918-7.3,9.581,9.581,0,0,1,7.184-3.031,9.946,9.946,0,0,1,7.3,3.031,9.946,9.946,0,0,1,3.031,7.3V9.642a9.581,9.581,0,0,1-3.031,7.184A10.141,10.141,0,0,1,328.082,19.744Zm63.979,0a9.763,9.763,0,0,1-7.184-2.918,9.763,9.763,0,0,1-2.918-7.184V-127.745a10.141,10.141,0,0,1,2.918-7.3,9.581,9.581,0,0,1,7.184-3.031h51.183q21.326,0,34.8,7.184t19.306,18.408a51.775,51.775,0,0,1,5.837,24.245,51.775,51.775,0,0,1-5.837,24.245Q491.51-52.766,478.04-45.582t-34.8,7.184H402.388V9.642a9.581,9.581,0,0,1-3.031,7.184A10.141,10.141,0,0,1,392.061,19.744ZM441.224-57.7q22.9,0,32.214-8.755a28.662,28.662,0,0,0,9.316-21.775,28.662,28.662,0,0,0-9.316-21.775q-9.316-8.755-32.214-8.755H402.388V-57.7Z" transform="translate(849.604 212)"/>
      <path id="Path_264" data-name="Path 264" d="M9.279,29.1a4.083,4.083,0,0,1-4.138-4.138V-31.322a4.154,4.154,0,0,1,1.2-2.989,3.925,3.925,0,0,1,2.943-1.242H30.248q8.737,0,14.255,2.943a18.168,18.168,0,0,1,7.909,7.541A21.211,21.211,0,0,1,54.8-15.136,21.211,21.211,0,0,1,52.412-5.2,18.168,18.168,0,0,1,44.5,2.338Q38.985,5.281,30.248,5.281H13.51V24.961A3.925,3.925,0,0,1,12.268,27.9,4.154,4.154,0,0,1,9.279,29.1ZM29.42-2.628q9.381,0,13.2-3.587a11.742,11.742,0,0,0,3.817-8.921,11.742,11.742,0,0,0-3.817-8.921q-3.817-3.587-13.2-3.587H13.51V-2.628ZM68.69,29.1a4.083,4.083,0,0,1-4.138-4.138V-14.492a4.154,4.154,0,0,1,1.2-2.989,3.925,3.925,0,0,1,2.943-1.242,4.074,4.074,0,0,1,2.989,1.242,4.074,4.074,0,0,1,1.242,2.989v3.955q6.438-8.645,14.439-8.645h.46a3.849,3.849,0,0,1,2.9,1.2,4.083,4.083,0,0,1,1.15,2.943,3.7,3.7,0,0,1-1.2,2.851,4.3,4.3,0,0,1-3.035,1.1h-.46a15.686,15.686,0,0,0-8.093,2.161A18.638,18.638,0,0,0,72.92-3V24.961A3.925,3.925,0,0,1,71.678,27.9,4.154,4.154,0,0,1,68.69,29.1Zm50.4.46a24.673,24.673,0,0,1-12.415-3.035,20.625,20.625,0,0,1-8.231-8.6,27.179,27.179,0,0,1-2.9-12.737,27.179,27.179,0,0,1,2.9-12.737,20.625,20.625,0,0,1,8.231-8.6,24.673,24.673,0,0,1,12.415-3.035,24.484,24.484,0,0,1,12.323,3.035,20.92,20.92,0,0,1,8.277,8.6A26.831,26.831,0,0,1,142.63,5.189a26.831,26.831,0,0,1-2.943,12.737,20.92,20.92,0,0,1-8.277,8.6A24.484,24.484,0,0,1,119.087,29.56Zm0-7.633a15.771,15.771,0,0,0,7.219-1.747,14.045,14.045,0,0,0,5.7-5.518A18.407,18.407,0,0,0,134.261,5.1a18.209,18.209,0,0,0-2.253-9.473,13.729,13.729,0,0,0-5.7-5.472,16.117,16.117,0,0,0-7.219-1.7,16.311,16.311,0,0,0-7.311,1.7,13.453,13.453,0,0,0-5.656,5.472A18.512,18.512,0,0,0,103.913,5.1a18.714,18.714,0,0,0,2.207,9.564,13.759,13.759,0,0,0,5.656,5.518A15.959,15.959,0,0,0,119.087,21.927ZM158.448,29.1a4.083,4.083,0,0,1-4.138-4.138V-14.492a4.154,4.154,0,0,1,1.2-2.989,3.925,3.925,0,0,1,2.943-1.242,4.074,4.074,0,0,1,2.989,1.242,4.074,4.074,0,0,1,1.242,2.989v3.771a22.91,22.91,0,0,1,6.208-6.07,16.858,16.858,0,0,1,9.427-2.391,14.3,14.3,0,0,1,8.829,2.759,15.39,15.39,0,0,1,5.242,6.714q5.7-9.472,16.922-9.473a13.971,13.971,0,0,1,8.6,2.575,15.362,15.362,0,0,1,5.1,6.622,22.135,22.135,0,0,1,1.655,8.461V24.961a3.925,3.925,0,0,1-1.242,2.943,4.154,4.154,0,0,1-2.989,1.2,4.083,4.083,0,0,1-4.138-4.138V.131q0-5.978-2.115-8.783t-7.265-2.8a12.139,12.139,0,0,0-7.771,2.437,23.578,23.578,0,0,0-5.472,6.392v27.59A3.925,3.925,0,0,1,192.43,27.9a4.154,4.154,0,0,1-2.989,1.2,4.083,4.083,0,0,1-4.138-4.138V.131q0-5.978-2.115-8.783t-7.265-2.8a12.139,12.139,0,0,0-7.771,2.437,23.578,23.578,0,0,0-5.472,6.392v27.59a3.925,3.925,0,0,1-1.242,2.943A4.154,4.154,0,0,1,158.448,29.1Zm100.979.46a24.673,24.673,0,0,1-12.415-3.035,20.625,20.625,0,0,1-8.231-8.6,27.179,27.179,0,0,1-2.9-12.737,27.179,27.179,0,0,1,2.9-12.737,20.625,20.625,0,0,1,8.231-8.6,24.673,24.673,0,0,1,12.415-3.035,24.484,24.484,0,0,1,12.323,3.035,20.92,20.92,0,0,1,8.277,8.6A26.831,26.831,0,0,1,282.97,5.189a26.831,26.831,0,0,1-2.943,12.737,20.92,20.92,0,0,1-8.277,8.6A24.484,24.484,0,0,1,259.427,29.56Zm0-7.633a15.771,15.771,0,0,0,7.219-1.747,14.045,14.045,0,0,0,5.7-5.518A18.406,18.406,0,0,0,274.6,5.1a18.209,18.209,0,0,0-2.253-9.473,13.729,13.729,0,0,0-5.7-5.472,16.117,16.117,0,0,0-7.219-1.7,16.311,16.311,0,0,0-7.311,1.7,13.453,13.453,0,0,0-5.656,5.472A18.512,18.512,0,0,0,244.253,5.1a18.714,18.714,0,0,0,2.207,9.564,13.759,13.759,0,0,0,5.656,5.518A15.959,15.959,0,0,0,259.427,21.927Zm51.041,7.633q-13.427,0-13.427-12.14V-11.089h-6.53a1.688,1.688,0,0,1-1.242-.506,1.688,1.688,0,0,1-.506-1.242,1.923,1.923,0,0,1,.828-1.563L302.1-26.632a2.322,2.322,0,0,1,1.563-.828,1.619,1.619,0,0,1,1.242.552,1.846,1.846,0,0,1,.506,1.288v7.357H315.8a3.488,3.488,0,0,1,2.575,1.012,3.488,3.488,0,0,1,1.012,2.575,3.531,3.531,0,0,1-1.012,2.529,3.409,3.409,0,0,1-2.575,1.058H305.41V16.684q0,3.587,1.7,4.552a8.57,8.57,0,0,0,4.276.966,12.745,12.745,0,0,0,3.679-.552q.368-.092.782-.184a5.012,5.012,0,0,1,1.058-.092,3.241,3.241,0,0,1,2.3.966,3.121,3.121,0,0,1,1.012,2.345A3.479,3.479,0,0,1,318.1,27.9,18,18,0,0,1,310.468,29.56Zm22.9-57.387a4.515,4.515,0,0,1-3.311-1.379,4.515,4.515,0,0,1-1.38-3.311v-.368a4.515,4.515,0,0,1,1.38-3.311,4.515,4.515,0,0,1,3.311-1.379h.552A4.515,4.515,0,0,1,337.23-36.2a4.515,4.515,0,0,1,1.379,3.311v.368a4.515,4.515,0,0,1-1.379,3.311,4.515,4.515,0,0,1-3.311,1.379Zm.184,56.927a4.083,4.083,0,0,1-4.138-4.138V-14.492a4.154,4.154,0,0,1,1.2-2.989,3.925,3.925,0,0,1,2.943-1.242,4.112,4.112,0,0,1,3.035,1.2,4.112,4.112,0,0,1,1.2,3.035V24.961a3.925,3.925,0,0,1-1.242,2.943A4.154,4.154,0,0,1,333.552,29.1Zm22.9,0a4.083,4.083,0,0,1-4.139-4.138V-14.492a4.154,4.154,0,0,1,1.2-2.989,3.925,3.925,0,0,1,2.943-1.242,4.074,4.074,0,0,1,2.989,1.242,4.074,4.074,0,0,1,1.242,2.989v3.771a30.57,30.57,0,0,1,7.541-6.162,19.042,19.042,0,0,1,9.564-2.3,15.9,15.9,0,0,1,8.783,2.391,15.547,15.547,0,0,1,5.7,6.53,20.845,20.845,0,0,1,1.977,9.1V24.961a3.925,3.925,0,0,1-1.242,2.943,4.154,4.154,0,0,1-2.989,1.2,4.083,4.083,0,0,1-4.138-4.138V-.237q0-11.22-10.116-11.22a14.635,14.635,0,0,0-8.231,2.391,29.793,29.793,0,0,0-6.851,6.438v27.59A3.925,3.925,0,0,1,359.44,27.9,4.154,4.154,0,0,1,356.451,29.1Zm73.757,21.612a43.537,43.537,0,0,1-10.76-1.379,35.26,35.26,0,0,1-8.921-3.4,3.492,3.492,0,0,1-1.655-3.219,3.764,3.764,0,0,1,1.058-2.621,3.418,3.418,0,0,1,2.621-1.15,4.518,4.518,0,0,1,1.655.368A33.454,33.454,0,0,0,429.38,42.8q14.071,0,14.071-14.99V21.651a20.755,20.755,0,0,1-15.726,6.989,22.168,22.168,0,0,1-10.53-2.713,21.915,21.915,0,0,1-8.415-8.093,24.545,24.545,0,0,1-3.311-13.105A24.545,24.545,0,0,1,408.78-8.376a21.915,21.915,0,0,1,8.415-8.093,22.169,22.169,0,0,1,10.53-2.713,20.755,20.755,0,0,1,15.726,6.989v-2.3a4.154,4.154,0,0,1,1.2-2.989,3.925,3.925,0,0,1,2.943-1.242,4.074,4.074,0,0,1,2.989,1.242,4.074,4.074,0,0,1,1.242,2.989V26.617q0,11.588-5.61,17.841T430.208,50.712Zm-.736-29.705a15.456,15.456,0,0,0,7.633-1.839,27.535,27.535,0,0,0,6.346-4.966V-4.744a27.535,27.535,0,0,0-6.346-4.966,15.456,15.456,0,0,0-7.633-1.839,15.615,15.615,0,0,0-11.266,4.184q-4.368,4.184-4.368,12.094t4.368,12.094A15.615,15.615,0,0,0,429.472,21.007ZM496.056,29.1a4.083,4.083,0,0,1-4.139-4.138v-54.9a5.915,5.915,0,0,1,1.747-4.276,5.688,5.688,0,0,1,4.23-1.793h1.2a6.228,6.228,0,0,1,5.058,2.759L539.556,17.88V-31.782a4.155,4.155,0,0,1,1.2-2.989,3.925,3.925,0,0,1,2.943-1.242,4.074,4.074,0,0,1,2.989,1.242,4.075,4.075,0,0,1,1.242,2.989v54.9a5.689,5.689,0,0,1-1.793,4.23,5.915,5.915,0,0,1-4.276,1.747h-1.1a5.755,5.755,0,0,1-2.759-.69,6.347,6.347,0,0,1-2.115-1.793L500.286-24.792V24.961a3.925,3.925,0,0,1-1.242,2.943A4.154,4.154,0,0,1,496.056,29.1Zm87.736.46q-11.22,0-17.52-6.392t-6.3-17.979a29.975,29.975,0,0,1,2.391-12.048,20.479,20.479,0,0,1,7.357-8.921,21.129,21.129,0,0,1,12.232-3.4,21.394,21.394,0,0,1,11.772,3.173,20.519,20.519,0,0,1,7.541,8.461A26.008,26.008,0,0,1,603.84,3.993a4.016,4.016,0,0,1-4.23,4.138H568.433a15.121,15.121,0,0,0,4.782,10.024q4.046,3.587,11.312,3.587a27.644,27.644,0,0,0,6.759-.736,28.069,28.069,0,0,0,5.656-2.115,3.651,3.651,0,0,1,1.655-.368,3.691,3.691,0,0,1,2.575,1.012,3.34,3.34,0,0,1,1.1,2.575q0,2.023-2.391,3.4a33.289,33.289,0,0,1-7.081,3.035A33.2,33.2,0,0,1,583.792,29.56ZM595.563,1.326a14.735,14.735,0,0,0-2.345-7.541,12.66,12.66,0,0,0-5.1-4.46,14.03,14.03,0,0,0-12.323,0,12.349,12.349,0,0,0-5.058,4.46,15.012,15.012,0,0,0-2.3,7.541Zm23.451,48.926a3.925,3.925,0,0,1-2.943-1.242,4.154,4.154,0,0,1-1.2-2.989V-14.584a4,4,0,0,1,1.2-2.943,4,4,0,0,1,2.943-1.2,4.154,4.154,0,0,1,2.989,1.2,3.925,3.925,0,0,1,1.242,2.943v2.391a21.134,21.134,0,0,1,15.726-6.989,21.561,21.561,0,0,1,10.806,2.9,21.976,21.976,0,0,1,8.277,8.461,25.82,25.82,0,0,1,3.173,13.013A25.82,25.82,0,0,1,658.054,18.2a21.976,21.976,0,0,1-8.277,8.461,21.561,21.561,0,0,1-10.806,2.9,21.134,21.134,0,0,1-15.726-6.989V46.022a4.09,4.09,0,0,1-4.231,4.23Zm18.761-28.509a14.452,14.452,0,0,0,10.944-4.322q4.139-4.322,4.138-12.231T648.719-7.043a14.452,14.452,0,0,0-10.944-4.322A17.371,17.371,0,0,0,629.82-9.48a22.719,22.719,0,0,0-6.576,5.012V14.845a22.719,22.719,0,0,0,6.576,5.012A17.371,17.371,0,0,0,637.776,21.743Zm47.087,7.817a17.093,17.093,0,0,1-7.5-1.655,13.055,13.055,0,0,1-5.472-4.828,13.3,13.3,0,0,1-2.023-7.311,12.889,12.889,0,0,1,5.38-10.852Q680.632.866,691.024.866h11.128V.131q0-6.07-2.989-8.737t-9.335-2.667a31.352,31.352,0,0,0-6.208.552A52.094,52.094,0,0,0,677.6-9.066a5.169,5.169,0,0,1-1.2.184,3.269,3.269,0,0,1-2.391-1.012A3.376,3.376,0,0,1,673-12.377a3.547,3.547,0,0,1,2.391-3.495,40.45,40.45,0,0,1,15.91-3.311,20.77,20.77,0,0,1,10.714,2.575,16.187,16.187,0,0,1,6.438,6.668,19.387,19.387,0,0,1,2.069,8.875V24.961a3.925,3.925,0,0,1-1.242,2.943,4.155,4.155,0,0,1-2.989,1.2,4.083,4.083,0,0,1-4.138-4.138V22.57Q695.346,29.56,684.862,29.56Zm3.127-7.357a16.626,16.626,0,0,0,7.817-1.977,21.731,21.731,0,0,0,6.346-4.92V7.58H692.128q-13.887,0-13.887,7.265a6.824,6.824,0,0,0,2.253,5.334Q682.747,22.2,687.989,22.2Zm40.741,6.9a4.083,4.083,0,0,1-4.138-4.138V-34.725a4.154,4.154,0,0,1,1.2-2.989,3.925,3.925,0,0,1,2.943-1.242,4.112,4.112,0,0,1,3.035,1.2,4.112,4.112,0,0,1,1.2,3.035V24.961a3.925,3.925,0,0,1-1.242,2.943A4.154,4.154,0,0,1,728.73,29.1Z" transform="translate(445.09 301)"/>
    </g>
    <text id="TM" transform="translate(1439 4213)" font-size="52" font-family="VarelaRound-Regular, Varela Round"><tspan x="0" y="0">TM</tspan></text>
  </g>
</svg>
